<?xml version="1.0" standalone="no"?>
<!DOCTYPE svg PUBLIC "-//W3C//DTD SVG 20010904//EN"
 "http://www.w3.org/TR/2001/REC-SVG-20010904/DTD/svg10.dtd">
<svg version="1.0" xmlns="http://www.w3.org/2000/svg"
 width="980.000000pt" height="982.000000pt" viewBox="0 0 980.000000 982.000000"
 preserveAspectRatio="xMidYMid meet">

<g transform="translate(0.000000,982.000000) scale(0.100000,-0.100000)"
fill="#000000" stroke="none">
<path d="M2950 9799 c-234 -4 -470 -13 -526 -18 -171 -17 -523 -120 -757 -222
-315 -136 -666 -393 -915 -669 -195 -215 -328 -412 -457 -675 -162 -328 -247
-622 -266 -915 -37 -586 -37 -4185 0 -4770 32 -483 261 -1031 610 -1458 184
-225 428 -448 656 -600 301 -200 761 -379 1090 -421 192 -26 455 -32 1498 -38
l1107 -6 0 1817 0 1816 -610 0 -610 0 0 780 0 780 608 0 609 0 6 493 c4 270
11 558 17 639 61 923 518 1616 1229 1862 245 85 366 96 1204 103 l667 6 0
-782 0 -781 -157 0 c-287 -1 -708 -19 -781 -34 -250 -52 -439 -208 -531 -438
-63 -157 -76 -267 -87 -755 l-7 -313 777 0 c427 0 776 -3 776 -8 0 -8 -296
-1490 -305 -1530 l-5 -22 -620 0 -620 0 0 -1815 0 -1815 78 0 c135 0 593 20
707 30 361 34 791 187 1128 401 184 117 305 216 503 414 253 252 406 459 542
732 118 236 236 598 262 804 23 178 40 4088 20 4639 -13 372 -29 501 -86 696
-105 365 -290 727 -510 1004 -86 108 -353 375 -464 464 -284 227 -644 414
-980 510 -204 58 -319 77 -525 87 -248 13 -3724 19 -4275 8z"/>
</g>
</svg>
